<svg width="14" height="13" viewBox="0 0 14 13" fill="none" xmlns="http://www.w3.org/2000/svg">
<path d="M7.03626 13C9.5906 11.3992 11.4568 9.73824 12.6348 8.01709C13.6495 6.53666 14.0986 5.1164 13.982 3.75633C13.9353 3.15453 13.7779 2.60088 13.5096 2.09536C13.2646 1.62596 12.9322 1.21673 12.5123 0.867688C12.1158 0.542715 11.6726 0.308013 11.1827 0.16358C10.6928 0.019148 10.1913 -0.0229779 9.67808 0.0372022C8.95493 0.13349 8.36008 0.374211 7.89354 0.759363C7.50864 1.0723 7.21121 1.46949 7.00127 1.95093C6.79132 1.46949 6.49973 1.0723 6.12649 0.759363C5.63662 0.374211 5.03011 0.13349 4.30696 0.0372022C4.17866 0.0131302 4.0562 0.00109419 3.93956 0.00109419C3.44969 -0.0109418 2.97148 0.0763189 2.50493 0.262877C2.03838 0.449436 1.62432 0.723255 1.26275 1.08434C0.87785 1.44542 0.586259 1.86066 0.387977 2.33006C0.154704 2.84761 0.0264034 3.40127 0.00307613 3.99104C-0.0435785 5.32703 0.440463 6.7172 1.4552 8.16152C2.65656 9.84656 4.49358 11.4594 6.96628 13C6.97794 12.988 6.9896 12.9819 7.00127 12.9819C7.02459 12.9819 7.03626 12.988 7.03626 13Z" fill="#FF0101"/>
</svg>
